# xmcd CD database file
#
# Track frame offsets:
#	150
#	19682
#	35307
#	58513
#	78623
#	90282
#	109425
#	131700
#	151558
#	173745
#
# Disc length: 2404 seconds
#
# Revision: 3
# Processed by: cddbd v1.5.2PL0 Copyright (c) Steve Scherf et al.
# Submitted via: CDex 1.70beta3
#
DISCID=6f09620a
DTITLE=大滝詠一 - NIAGARA SONG BOOK 2
DYEAR=1984
DGENRE=J-Pop
TTITLE0=夏のペーパーバック
TTITLE1=恋のナックルボール
TTITLE2=ペパーミント・ブルー
TTITLE3=木の葉のスケッチ
TTITLE4=真夏の昼の夢
TTITLE5=魔法の瞳
TTITLE6=ガラス壜の中の船
TTITLE7=銀色のジェット
TTITLE8=レイクサイド ストーリー
TTITLE9=夏のペーパーバック (Reprise)
EXTD=YEAR: 1984
EXTT0=
EXTT1=
EXTT2=
EXTT3=
EXTT4=
EXTT5=
EXTT6=
EXTT7=
EXTT8=
EXTT9=
PLAYORDER=
